<svg xmlns="http://www.w3.org/2000/svg" viewBox="20 240 160 160" xml:space="preserve"><path fill="#044872" d="M179.7,311c-33.4-8.3-58.3,28-79.5,57.9v-24.5C117.7,320.3,154.3,293.6,179.7,311z"/><path fill="#044872" d="M21,310.7c33.5-8.2,58.2,28.1,79.3,58.2v-24.5C83,320.3,46.5,293.5,21,310.7z"/><circle fill="#044872" cx="59.1" cy="292" r="7.8"/><circle fill="#044872" cx="142.3" cy="292" r="7.8"/><path fill="#84BD00" d="M159.7,327.5c-1.6-4.4-8.4-17.1-34.4-21.3l0,0c-16.5-3.5-33.5-3.3-50,0.3c-24,4.4-32,16.3-34.1,20.7c4.5-2.3,18.1-7.9,46-8.6h3l10.1,50.3l10.1-50.3h3.2C142,319.4,155.5,325.3,159.7,327.5z"/><circle fill="#84BD00" cx="100.1" cy="286" r="10.7"/></svg>