<svg xmlns:dc="http://purl.org/dc/elements/1.1/" xmlns:cc="http://creativecommons.org/ns#" xmlns:rdf="http://www.w3.org/1999/02/22-rdf-syntax-ns#" xmlns:svg="http://www.w3.org/2000/svg" xmlns="http://www.w3.org/2000/svg" xmlns:sodipodi="http://sodipodi.sourceforge.net/DTD/sodipodi-0.dtd" xmlns:inkscape="http://www.inkscape.org/namespaces/inkscape" width="50" height="50" id="svg3490" version="1.1" inkscape:version="0.48.1 " sodipodi:docname="o'reillylogo2.svg" viewBox="7 7 45 45">
  <metadata id="metadata3495">
    <rdf:RDF xmlns:rdf="http://www.w3.org/1999/02/22-rdf-syntax-ns#">
      <cc:Work xmlns:cc="http://creativecommons.org/ns#" rdf:about="">
        <dc:format xmlns:dc="http://purl.org/dc/elements/1.1/">image/svg+xml</dc:format>
        <dc:type xmlns:dc="http://purl.org/dc/elements/1.1/" rdf:resource="http://purl.org/dc/dcmitype/StillImage"/>
        <dc:title xmlns:dc="http://purl.org/dc/elements/1.1/"/>
      </cc:Work>
    </rdf:RDF>
  </metadata>
  <g xmlns:inkscape="http://www.inkscape.org/namespaces/inkscape" inkscape:label="Layer 1" inkscape:groupmode="layer" id="layer1" transform="translate(-96.407616,-618.63684)">
    <g id="g3335" transform="matrix(2.3300338,0,0,-2.3231015,121.59921,632.17619)" style="fill:#009d57;fill-opacity:1">
      <path inkscape:connector-curvature="0" d="m 0,0 c -2.58,0 -3.965,-2.185 -3.965,-6.307 0,-3.011 0.902,-7.196 4.322,-7.196 2.748,0 3.818,2.506 3.818,6.505 C 4.175,-2.778 2.602,0 0,0 z m 7.532,-6.677 c 0,-5.381 -3.063,-8.615 -7.574,-8.615 -4.217,0 -7.28,3.258 -7.28,8.417 0,4.887 3.105,8.664 7.49,8.664 4.364,0 7.364,-3.456 7.364,-8.466" style="fill:#009d57;fill-opacity:1;fill-rule:nonzero;stroke:none" id="path3337"/>
    </g>
    <g id="g3339" transform="matrix(2.3300338,0,0,-2.3231015,122.57082,655.92758)" style="fill:#009d57;fill-opacity:1">
      <path inkscape:connector-curvature="0" d="M 0,0 C 0.055,0.043 0.104,0.091 0.151,0.141 0.116,0.083 0.068,0.035 0,0 z M -0.052,5.076 C -0.059,5.156 -0.07,5.235 -0.084,5.314 -0.07,5.305 -0.055,5.296 -0.041,5.287 -0.043,5.217 -0.047,5.146 -0.052,5.076 z M 2.811,3.915 c 0,0.524 -0.441,0.949 -0.984,0.949 -0.224,0 -0.43,-0.073 -0.596,-0.195 0.049,0.109 0.086,0.221 0.097,0.34 0.074,0.133 0.116,0.285 0.116,0.447 0,0.524 -0.44,0.949 -0.983,0.949 -0.266,0 -0.506,-0.102 -0.683,-0.267 -0.179,0.179 -0.43,0.291 -0.709,0.291 -0.543,0 -0.983,-0.424 -0.983,-0.948 0,-0.279 0.125,-0.529 0.324,-0.703 0.018,-0.036 0.037,-0.073 0.057,-0.108 -0.006,-0.001 -0.012,-0.001 -0.018,-0.002 -0.166,0.123 -0.372,0.196 -0.597,0.196 -0.544,0 -0.984,-0.425 -0.984,-0.949 0,-0.274 0.122,-0.521 0.315,-0.694 -0.164,-0.17 -0.265,-0.397 -0.265,-0.647 0,-0.414 0.275,-0.765 0.658,-0.895 0.016,-0.014 0.031,-0.028 0.049,-0.04 0.195,-0.144 0.457,-0.161 0.672,-0.056 0.118,0.005 0.233,0.05 0.324,0.138 0.002,0.002 0.004,0.004 0.006,0.006 0.085,0.025 0.165,0.065 0.239,0.123 -0.017,-0.012 -0.033,-0.023 -0.05,-0.035 0.081,0.03 0.151,0.076 0.215,0.129 0.132,0.029 0.268,0.047 0.394,0.097 -0.019,-0.008 -0.037,-0.014 -0.056,-0.022 0.074,0.004 0.149,0.003 0.224,0.009 0.004,-0.28 0.01,-0.56 -0.01,-0.841 C -0.421,1.127 -0.445,1.069 -0.46,1.008 -0.458,1.019 -0.456,1.029 -0.454,1.04 -0.509,0.92 -0.558,0.799 -0.62,0.683 -0.604,0.7 -0.584,0.714 -0.564,0.728 -0.586,0.71 -0.606,0.69 -0.626,0.67 -0.636,0.653 -0.644,0.636 -0.654,0.619 c 0.003,0.017 0.01,0.031 0.019,0.044 -0.076,-0.077 -0.138,-0.167 -0.17,-0.282 0,0.01 0,0.02 0,0.03 -0.119,-0.249 -0.015,-0.545 0.232,-0.665 0.248,-0.118 0.545,-0.014 0.664,0.233 0.008,0.014 0.015,0.029 0.023,0.044 0.246,0.265 0.368,0.629 0.437,0.99 0.063,0.325 0.042,0.637 0.034,0.952 0.38,-0.263 0.824,-0.313 1.265,-0.287 0.017,0.001 0.034,0 0.051,0.001 l 0.026,0 c 0.179,0 0.336,0.097 0.423,0.242 0.277,0.168 0.461,0.464 0.461,0.802 0,0.226 -0.082,0.433 -0.219,0.596 0.137,0.163 0.219,0.37 0.219,0.596" style="fill:#009d57;fill-opacity:1;fill-rule:nonzero;stroke:none" id="path3341"/>
    </g>
    <g id="g3355" transform="matrix(2.3300338,0,0,-2.3231015,146.85211,630.19925)" style="fill:#009d57;fill-opacity:1">
      <path inkscape:connector-curvature="0" d="m 0,0 c 0,0.861 -0.698,1.559 -1.559,1.559 -0.861,0 -1.56,-0.698 -1.56,-1.559 0,-0.067 0.006,-0.133 0.015,-0.199 0.002,-0.084 0.024,-0.211 0.102,-0.39 0.014,-0.036 0.031,-0.07 0.048,-0.104 0.001,-0.004 0.003,-0.007 0.005,-0.01 0.013,-0.026 0.027,-0.052 0.041,-0.077 0.145,-0.267 0.392,-0.617 0.813,-1.071 L -2.68,-2.29 -2.095,-3.264 c 0,0 1.834,1.192 2.066,2.967 C -0.01,-0.201 0,-0.102 0,0" style="fill:#009d57;fill-opacity:1;fill-rule:nonzero;stroke:none" id="path3357"/>
    </g>
  </g>
</svg>