<svg xmlns="http://www.w3.org/2000/svg" xmlns:xlink="http://www.w3.org/1999/xlink" version="1.1" id="layer" x="0px" y="0px" viewBox="0 50 50" style="enable-background:new 0 0 652 652;" xml:space="preserve">
<style type="text/css">
	.st0{fill:#044872;}
	.st1{fill:#84BD00;}
</style>

<path class="st0" d="M179.7,311c-33.4-8.3-58.3,28-79.5,57.9v-24.5C117.7,320.3,154.3,293.6,179.7,311z"/>
<path class="st0" d="M21,310.7c33.5-8.2,58.2,28.1,79.3,58.2v-24.5C83,320.3,46.5,293.5,21,310.7z"/>
<circle class="st0" cx="59.1" cy="292" r="7.8"/>
<circle class="st0" cx="142.3" cy="292" r="7.8"/>
<path class="st1" d="M159.7,327.5c-1.6-4.4-8.4-17.1-34.4-21.3l0,0c-16.5-3.5-33.5-3.3-50,0.3c-24,4.4-32,16.3-34.1,20.7  c4.5-2.3,18.1-7.9,46-8.6h3l10.1,50.3l10.1-50.3h3.2C142,319.4,155.5,325.3,159.7,327.5z"/>
<circle class="st1" cx="100.1" cy="286" r="10.7"/>
</svg>