<svg xmlns="http://www.w3.org/2000/svg" viewBox="0 0 553 412">
  <g transform="translate(0 412) scale(.1 -.1)" fill="#066da5">
    <path d="M2660 3560v-230h250 250v460h-500v-230zM1470 3015v-225h500v450h-500v-225zM2070 3015v-225h490v450h-490v-225zM2660 3015v-225h500v450h-500v-225zM4232 3037c-96-153-133-281-134-457-1-118 16-199 61-297l29-61-51-21c-151-60-8-56-1894-59l-1722-2-8-38c-4-20-7-107-7-192 6-587 293-1084 764-1320 322-161 722-211 1240-154 415 46 791 167 1100 354 403 243 704 575 918 1011l77 156 125 11c304 27 464 131 592 386 22 43 35 82 30 85-5 3-38 25-74 48-103 68-187 87-400 87h-176l-11 52c-34 173-194 368-397 486-5 3-33-31-62-76zM880 2465v-225h500v450h-500v-225zM1470 2465v-225h500v450h-500v-225zM2070 2465v-225h490v450h-490v-225zM2660 2465v-225h500v450h-500v-225zM3250 2465v-225h500v450h-500v-225z"/>
  </g>
</svg>