<svg xmlns="http://www.w3.org/2000/svg" viewBox="0 0 400.000000 400.000000" preserveAspectRatio="xMidYMid meet" height="100px" width="100px">
<g  transform="translate(0.000000,400.000000) scale(0.100000,-0.100000)" fill="#007399" stroke="none">
    <path d="M2254 3545 c-157 -221 -165 -498 -21 -755 57 -102 204 -248 314 -313 295 -175 668 -161 892 35 38 33 124 135 142 170 7 13 -8 5 -42 -22 -111 -87 -218 -123 -374 -123 -422 1 -786 277 -886 672 -27 106 -23 255 8 344 11 31 19 57 17 57 -2 0 -24 -29 -50 -65z"/>
    <path d="M1496 3324 c-121 -173 -161 -255 -192 -389 -112 -490 135 -1020 617 -1323 147 -93 326 -162 470 -183 124 -17 366 -15 479 5 317 56 564 214 736 471 29 44 65 106 79 139 l26 59 -77 -82 c-380 -404 -1053 -423 -1581 -45 -112 80 -271 242 -343 349 -150 222 -220 439 -220 680 0 142 17 242 61 354 15 41 27 76 26 77 -1 1 -38 -49 -81 -112z"/>
    <path d="M593 3003 c-128 -162 -148 -193 -195 -293 -149 -317 -162 -685 -38 -1063 181 -550 625 -1000 1194 -1212 195 -72 414 -102 687 -92 391 14 727 143 1004 385 116 102 229 239 308 374 77 132 75 138 -19 44 -181 -181 -419 -304 -700 -360 -174 -36 -501 -36 -691 -1 -573 105 -1116 512 -1377 1032 -156 312 -215 636 -171 942 17 114 52 241 90 327 13 30 22 54 20 54 -2 0 -52 -62 -112 -137z"/>
</g>
</svg>
