<svg xmlns="http://www.w3.org/2000/svg" viewBox="0 0 326.000000 243.000000" preserveAspectRatio="xMidYMid meet" height="100px" width="100px">
<g  transform="translate(0.000000,243.000000) scale(0.100000,-0.100000)" fill="#009999" stroke="none">
    <path d="M300 2404 c0 -9 14 -36 30 -61 17 -25 30 -46 28 -48 -2 -1 -28 -6 -58 -11 -71 -12 -71 -27 -2 -81 l54 -43 -58 -1 c-71 0 -126 -18 -130 -41 -1 -11 17 -26 54 -46 l56 -30 -50 -7 c-71 -10 -129 -38 -131 -62 -1 -15 10 -24 49 -38 l50 -18 -51 -17 c-64 -21 -117 -58 -117 -80 0 -14 11 -20 43 -25 23 -3 45 -10 48 -16 4 -5 2 -9 -3 -9 -20 0 -103 -63 -92 -70 6 -4 11 -11 10 -16 0 -5 7 -10 17 -12 42 -7 43 -12 5 -46 -20 -19 -38 -44 -39 -55 -2 -18 4 -21 39 -21 l41 0 -37 -32 c-20 -18 -39 -43 -41 -55 -4 -22 -1 -23 57 -23 l61 0 -44 -44 c-25 -24 -45 -53 -46 -65 -2 -19 3 -21 57 -21 l59 0 -49 -46 c-29 -27 -48 -53 -47 -65 1 -16 9 -19 61 -19 l60 0 -26 -27 c-35 -38 -68 -94 -68 -117 0 -16 5 -17 38 -12 20 4 45 9 54 12 13 4 9 -8 -17 -51 -18 -31 -31 -63 -28 -71 6 -17 8 -17 51 -5 37 11 37 10 16 -30 -8 -17 -17 -45 -19 -64 l-5 -34 45 19 c25 11 45 18 45 16 0 -2 -9 -23 -20 -47 -18 -41 -26 -89 -15 -89 2 0 29 11 60 24 30 14 55 23 55 22 0 -2 -9 -23 -20 -47 -21 -48 -26 -99 -10 -99 6 0 33 11 60 25 28 14 50 23 50 20 0 -3 -9 -23 -20 -45 -24 -47 -34 -110 -17 -110 7 0 53 22 103 49 l92 49 -6 -81 -5 -81 44 34 c24 19 72 61 106 94 62 58 63 58 63 30 0 -16 3 -39 6 -51 6 -22 8 -21 34 15 15 20 42 50 59 66 l31 30 0 -43 0 -43 102 93 c56 52 98 85 94 74 -4 -11 -13 -40 -19 -64 -12 -44 -13 -45 -132 -103 -66 -32 -198 -83 -293 -114 -113 -37 -169 -60 -160 -65 10 -7 10 -9 -2 -9 -8 -1 7 -12 34 -25 27 -14 51 -27 54 -30 3 -3 -10 -21 -28 -40 -19 -19 -35 -44 -37 -55 -2 -17 0 -18 23 -10 32 13 104 13 104 1 0 -5 -12 -19 -26 -30 -16 -12 -21 -21 -13 -21 9 -1 7 -6 -6 -16 -19 -14 -17 -14 23 -8 l43 7 -4 -37 c-2 -20 -7 -39 -12 -43 -4 -5 -5 -1 0 7 5 8 4 12 0 7 -5 -4 -9 -16 -10 -27 -1 -17 4 -15 44 14 70 51 236 144 336 189 50 22 196 75 325 119 266 89 449 173 526 242 85 75 106 119 158 329 l47 189 61 71 c77 90 153 206 175 268 11 31 24 50 38 53 89 22 230 31 475 31 223 0 265 2 225 11 -39 9 -44 12 -25 15 14 2 -132 30 -323 63 l-349 58 -26 -24 c-15 -14 -35 -28 -44 -31 -26 -9 -22 -22 18 -67 24 -26 31 -40 21 -40 -17 0 -77 65 -77 84 0 16 -56 9 -85 -10 -25 -18 -70 -18 -86 -1 -10 10 -21 10 -60 -3 -27 -8 -49 -19 -49 -24 0 -6 -9 -19 -20 -31 -17 -18 -19 -27 -10 -50 8 -22 7 -33 -5 -51 -8 -13 -19 -24 -23 -24 -4 0 -25 -20 -45 -45 -32 -38 -36 -48 -27 -65 7 -13 21 -20 40 -20 24 0 30 -6 40 -35 12 -35 46 -55 70 -40 6 4 20 -5 31 -19 11 -13 28 -28 39 -31 11 -4 20 -11 20 -16 0 -16 -43 0 -65 24 -11 12 -28 21 -38 19 -26 -5 -66 24 -73 53 -4 18 -13 25 -30 25 -29 0 -64 33 -64 60 0 11 11 27 25 36 14 9 25 24 25 34 0 10 8 21 19 25 10 3 26 14 36 25 16 17 16 22 2 49 -15 30 -14 32 10 51 17 13 24 26 20 40 -4 17 0 20 23 20 44 0 80 17 80 38 0 33 38 72 70 72 29 0 70 -39 70 -66 0 -29 97 -4 132 33 l23 25 -47 43 c-72 65 -110 80 -203 80 -68 0 -89 -5 -138 -30 -85 -42 -186 -152 -236 -258 -45 -95 -70 -113 -150 -110 -61 2 -84 23 -150 131 -202 332 -615 661 -1044 831 -91 36 -87 36 -87 15z m177 -148 c143 -61 503 -299 503 -333 0 -20 -8 -16 -58 27 -85 75 -334 235 -487 314 -70 35 -51 32 42 -8z m128 -191 c152 -73 385 -239 385 -274 0 -10 -13 -3 -37 21 -73 70 -200 151 -365 234 -91 46 -169 88 -173 94 -8 13 77 -20 190 -75z m-161 -55 c162 -50 399 -189 519 -305 52 -50 18 -38 -50 17 -142 115 -234 167 -448 254 -131 54 -142 71 -21 34z m-13 -125 c147 -50 394 -194 482 -280 51 -51 47 -66 -5 -21 -24 20 -90 68 -147 107 -147 99 -262 155 -421 206 -67 21 -70 23 -27 18 26 -4 79 -17 118 -30z m-88 -111 c86 -22 192 -62 278 -104 94 -48 254 -154 274 -183 26 -37 17 -42 -17 -11 -128 119 -359 236 -563 284 -49 12 -99 26 -110 31 -28 12 66 1 138 -17z m-8 -104 c147 -35 318 -116 447 -212 66 -49 112 -98 92 -98 -3 0 -39 27 -80 60 -165 132 -346 213 -558 250 -100 18 -100 18 -41 19 33 0 96 -8 140 -19z m32 -115 c138 -32 301 -112 411 -202 70 -57 37 -57 -38 1 -138 107 -327 183 -501 202 -35 3 -71 11 -79 16 -21 13 130 1 207 -17z m-2 -100 c135 -28 282 -94 334 -149 35 -37 9 -32 -48 9 -27 19 -78 48 -114 65 -66 30 -238 70 -300 70 -20 0 -39 5 -42 10 -9 15 85 12 170 -5z m46 -119 c82 -15 175 -54 204 -86 30 -33 10 -34 -36 0 -49 35 -142 65 -243 79 -37 6 -71 12 -74 15 -10 10 71 6 149 -8z m14 -107 c63 -11 135 -43 135 -59 0 -5 -20 -1 -44 10 -64 27 -148 40 -219 35 -68 -6 -66 0 4 14 61 12 59 12 124 0z m81 -110 c54 -14 73 -35 23 -25 -93 17 -168 18 -215 2 -60 -20 -75 -20 -46 0 49 34 153 44 238 23z m169 -89 c-3 -5 -44 -10 -90 -10 -98 0 -216 -21 -281 -50 -51 -22 -68 -21 -32 2 28 18 108 45 169 57 64 13 242 13 234 1z m45 -60 c0 -5 -15 -10 -32 -10 -56 0 -210 -36 -292 -68 -44 -17 -82 -30 -84 -27 -9 9 118 63 193 83 118 31 215 41 215 22z m65 -58 c-6 -5 -46 -17 -90 -27 -101 -22 -207 -59 -265 -93 -41 -23 -44 -23 -26 -4 28 32 109 69 222 102 95 28 179 39 159 22z m45 -62 c0 -5 -12 -12 -27 -16 -88 -19 -181 -58 -273 -115 l-35 -21 35 31 c48 42 143 92 215 112 71 21 85 22 85 9z m80 -58 c0 -5 -21 -14 -48 -20 -63 -17 -135 -59 -201 -118 -66 -60 -52 -26 16 38 55 51 75 63 148 89 54 20 85 24 85 11z m50 -51 c0 -4 -20 -16 -43 -25 -24 -9 -63 -32 -85 -52 -49 -42 -57 -32 -9 13 50 48 137 89 137 64z"/>
</g>
</svg>
