<svg xmlns="http://www.w3.org/2000/svg" width="100" height="100" viewBox="0 0 640 575">
<defs>
    <linearGradient id="MatLabGradient"  x1="1" x2="0" y1="0" y2="0.20">
<stop offset="10%" stop-color="#a73506"/>
<stop offset="40%" stop-color="#731206"/>
<stop offset="50%" stop-color="#ff9933"/>
<stop offset="65%" stop-color="#a73506"/>
<stop offset="75%" stop-color="#6d9a91"/>
    </linearGradient>
</defs>
<g  fill="url(#MatLabGradient)" xmlns="http://www.w3.org/2000/svg" transform="translate(-50,550) scale(0.085,-0.065)" stroke="none">
    <path d="M5826 7969 c-90 -38 -192 -121 -268 -217 -78 -99 -217 -310 -353 -537 -59 -99 -129 -211 -155 -250 -25 -38 -59 -92 -75 -119 -62 -108 -273 -397 -443 -606 -145 -178 -429 -443 -532 -495 -19 -10 -53 -30 -75 -45 -50 -33 -120 -61 -255 -101 -113 -33 -271 -112 -369 -184 -149 -109 -431 -414 -650 -701 l-92 -121 -87 -35 c-48 -20 -127 -54 -177 -75 -49 -22 -187 -77 -305 -123 -118 -45 -262 -104 -320 -131 -58 -26 -141 -61 -185 -77 -122 -45 -383 -151 -424 -171 -20 -10 -175 -73 -346 -140 -170 -67 -335 -133 -365 -148 -30 -14 -113 -50 -185 -79 -164 -66 -169 -79 -60 -148 45 -29 190 -134 359 -258 32 -23 89 -63 125 -88 36 -25 109 -77 161 -115 52 -39 114 -83 137 -98 38 -24 195 -137 347 -249 32 -23 91 -65 131 -93 90 -62 248 -176 323 -233 32 -23 81 -59 111 -78 30 -20 68 -49 84 -65 31 -31 61 -37 86 -15 28 24 254 106 324 119 58 9 81 9 155 -6 149 -30 211 -67 354 -215 112 -116 136 -148 246 -325 128 -207 180 -303 236 -439 19 -46 67 -150 106 -233 40 -82 91 -202 115 -265 24 -63 64 -162 90 -220 26 -58 80 -186 120 -285 122 -304 123 -305 157 -305 69 0 283 73 418 141 286 146 341 184 600 414 203 180 299 282 650 685 69 79 159 182 200 229 42 47 121 140 177 206 144 172 456 475 583 567 222 161 338 217 518 253 97 19 126 21 195 13 172 -19 320 -73 465 -172 168 -114 355 -269 542 -451 302 -293 614 -561 681 -584 50 -17 44 -1 -116 349 -31 69 -76 177 -100 240 -24 63 -76 192 -115 285 -40 94 -91 224 -115 290 -24 66 -75 197 -115 290 -39 94 -96 233 -125 310 -29 77 -85 221 -123 320 -80 207 -260 723 -537 1540 -276 813 -410 1192 -568 1600 -134 348 -385 863 -519 1067 -88 134 -246 303 -329 351 -110 64 -207 72 -313 26z"/>
</g>
</svg>
