<svg width="100" height="100" xmlns="http://www.w3.org/2000/svg" viewBox="0 0 726 718">
<path d="M 722.493 276.500 C 722.493 428.850, 722.609 491.026, 722.750 414.669 C 722.891 338.312, 722.891 213.662, 722.750 137.669 C 722.609 61.676, 722.493 124.150, 722.493 276.500 M 75.748 1.747 L 151.997 2.012 152.251 285.256 L 152.505 568.500 152.503 285 L 152.500 1.500 76 1.491 L -0.500 1.481 75.748 1.747 M 458.028 55.245 L 458.057 106.500 544.723 164.211 L 631.388 221.922 636.656 212.915 C 653.226 184.577, 663.195 150.885, 664.593 118.500 L 665.198 104.500 663.118 84.718 L 661.038 64.935 654.917 45.218 L 648.795 25.500 642.992 15 L 637.189 4.500 547.595 4.245 L 458 3.989 458.028 55.245 M 644 4.738 C 643.999 5.157, 660.199 5.376, 680 5.226 L 716 4.951 716 275.474 L 716 545.996 444.750 546.250 L 173.500 546.504 445.252 546.752 L 717.004 547 716.752 275.750 L 716.500 4.500 680.250 4.238 C 660.313 4.093, 644 4.318, 644 4.738 M 372.265 366.478 C 354.668 371.430, 343.834 383.265, 340.823 400.827 L 339.622 407.827 340.855 414.518 C 344.396 433.736, 351.389 439.831, 381.660 450.082 C 411.829 460.299, 419.999 467.478, 421.657 485.225 L 422.243 491.503 420.602 498.002 C 411.449 534.249, 355.808 533.475, 348.547 497 C 348.164 495.075, 347.629 492.712, 347.358 491.750 L 346.865 490 340.933 490 L 335 490 335.012 491.750 C 335.159 513.372, 356.266 533.068, 381 534.664 L 389.500 535.213 396.397 533.587 C 420.057 528.008, 434.195 508.936, 432.754 484.540 C 431.399 461.590, 421.479 451.946, 387.872 440.906 C 367.795 434.310, 361.905 431.364, 357.651 425.787 C 348.712 414.068, 350.279 394.816, 361.048 384.048 C 364.221 380.874, 367.869 378.445, 371.499 377.086 L 377.075 375 384 375 C 400.150 375, 412.052 384.379, 416.043 400.250 L 417.237 405 423.131 405 L 429.024 405 428.373 400.750 C 425.138 379.639, 409.520 366.458, 386.500 365.413 L 377.500 365.005 372.265 366.478 M 211 449.908 L 211 532 216.500 532 L 222 532 222 499.155 L 222 466.310 223.829 464.655 L 225.657 463 248.579 462.992 C 293.153 462.978, 307.853 456.405, 314.990 433.296 L 317 426.789 317 416.605 C 317 390.737, 307.227 377.095, 284.169 370.775 L 276.500 368.673 243.750 368.244 L 211 367.815 211 449.908 M 462 449.908 L 462 532 467.500 532 L 473 532 473 499.155 L 473 466.310 474.829 464.655 L 476.657 463 500.079 462.965 L 523.500 462.930 531.500 461.513 C 536.605 460.609, 542.199 458.722, 546.957 456.298 L 554.413 452.500 558.600 447.344 C 560.902 444.508, 563.793 439.558, 565.024 436.344 L 567.261 430.500 567.761 420.254 C 569.105 392.744, 558.963 377.285, 535.325 370.814 L 527.500 368.673 494.750 368.244 L 462 367.815 462 449.908 M 598 449.909 L 598 532 603.500 532 L 609 532 609 499.155 L 609 466.310 610.829 464.655 L 612.657 463 635.698 463 L 658.738 463 667.484 461.475 C 683.689 458.649, 693.474 451.978, 699.445 439.685 L 702.936 432.500 704.018 424.230 L 705.101 415.960 704.095 408.730 C 701.134 387.453, 691.266 376.048, 671 370.481 L 664.500 368.696 631.250 368.257 L 598 367.817 598 449.909 M 223.750 378.691 L 222 380.657 222 415.674 L 222 450.690 223.829 452.345 L 225.657 454 244.079 453.992 C 283.157 453.974, 295.219 449.813, 302.574 433.808 L 305.473 427.500 305.486 416.500 L 305.500 405.500 303.692 400.318 C 302.698 397.468, 300.337 393.110, 298.446 390.632 L 295.007 386.129 288.753 383.092 C 280.422 379.046, 273.607 378.098, 247.500 377.353 L 225.500 376.725 223.750 378.691 M 474.750 378.691 L 473 380.657 473 415.674 L 473 450.690 474.829 452.345 L 476.657 454 495.079 453.992 C 533.854 453.975, 545.391 450.107, 553.046 434.559 L 556.175 428.202 556.699 420.351 C 558.852 388.092, 546.063 378.638, 498.500 377.330 L 476.500 376.725 474.750 378.691 M 610.655 378.829 L 609 380.657 609 415.674 L 609 450.690 610.829 452.345 L 612.657 454 631.079 453.992 C 652.722 453.982, 664.783 452.787, 672.737 449.863 L 678.500 447.745 683.681 442.465 L 688.863 437.184 690.931 430.487 C 702.616 392.655, 683.621 377.159, 625.405 377.029 L 612.310 377 610.655 378.829" stroke="none" fill="#a0a0a0" fill-rule="evenodd"/>
<path d="M 76 0.991 L 152.500 1.500 152.752 284.750 L 153.003 568 436.502 568 L 720 568 720 643 L 720 718 723 718 L 726 718 726 359 L 726 0 724.500 0 L 723 0 723 276.500 L 723 553 445.500 553 L 168 553 168 276.500 L 168 0 83.750 0.241 L -0.500 0.481 76 0.991 M 174 275.500 L 174 546 445 546 L 716 546 716 275.500 L 716 5 680.500 5 C 660.975 5, 645 5.224, 645 5.498 C 645 5.771, 647.177 9.934, 649.838 14.748 L 654.677 23.500 660.907 43.722 L 667.138 63.945 669.364 85.722 L 671.589 107.500 670.771 121 C 669.258 145.974, 662.375 173.896, 652.284 196 C 647.283 206.953, 634.332 230, 633.177 230 C 632.811 230, 591.896 202.927, 542.256 169.837 L 452 109.674 452 57.337 L 452 5 447 5 L 442 5 442 55.831 L 442 106.661 486.112 196.581 C 510.373 246.036, 531.711 289.706, 533.530 293.625 L 536.836 300.751 527.168 304.866 C 501.213 315.915, 477.531 321.583, 449.500 323.456 L 440.500 324.057 418.500 321.919 L 396.500 319.782 375.500 313.301 L 354.500 306.820 336.086 296.851 L 317.672 286.882 301.664 273.724 L 285.655 260.565 272.353 244.533 L 259.051 228.500 248.642 209 L 238.233 189.500 232.177 169.500 L 226.122 149.500 224.014 128.588 L 221.906 107.676 224.043 86.088 L 226.179 64.500 232.699 43.500 L 239.219 22.500 244.038 13.750 L 248.858 5 211.429 5 L 174 5 174 275.500 M 62.276 39.511 C 42.238 43.865, 26.328 60.654, 21.447 82.596 L 19.740 90.265 20.271 102.383 L 20.802 114.500 22.991 121 C 35.537 158.266, 81.850 172.947, 104.369 146.798 C 109.594 140.730, 109.444 140.680, 110.931 149 L 112.182 156 119.091 156 L 126 156 126 125 L 126 94 103 94 L 80 94 80 103.500 L 80 113 93 113 L 106 113 106 115.804 C 106 123.402, 98.792 132.332, 89 136.866 L 83.500 139.413 76.500 139.389 L 69.500 139.365 64.286 137.075 C 37.450 125.288, 35.522 74.462, 61.410 61.280 L 66.500 58.688 73.579 58.223 L 80.659 57.759 86.167 59.360 C 92.827 61.296, 99.862 67.149, 102.464 72.919 L 104.304 77 115.263 77 L 126.223 77 125.551 73.250 C 121.108 48.442, 92.175 33.015, 62.276 39.511 M 491.948 173.250 C 529.241 249.853, 579.227 351.611, 579.897 352.288 C 581.999 354.414, 615.841 332.435, 631 319.099 C 643.819 307.821, 669 278.732, 669 275.200 C 669 274.443, 481.703 149, 480.572 149 C 480.336 149, 485.455 159.912, 491.948 173.250 M 28 263 L 28 321 39.989 321 L 51.977 321 52.239 280.810 L 52.500 240.620 75.853 280.810 L 99.206 321 111.103 321 L 123 321 123 263 L 123 205 111 205 L 99 205 99 244.732 L 99 284.464 75.846 244.732 L 52.692 205 40.346 205 L 28 205 28 263 M 370.112 360.581 C 335.061 370.007, 321.938 415.033, 346.952 440.048 C 353.196 446.291, 358.187 448.720, 379.336 455.806 C 388.988 459.040, 399.452 463.219, 402.591 465.093 C 421.378 476.310, 419.666 505.248, 399.590 515.805 L 394.500 518.482 385.500 518.491 L 376.500 518.500 370.818 515.710 C 361.209 510.991, 354.871 501.514, 353.460 489.750 L 352.770 484 342.007 484 L 331.245 484 329.980 485.524 L 328.715 487.048 329.301 493.323 C 335.524 559.957, 438.895 554.903, 438.988 487.960 C 439.028 459.466, 427.516 447.336, 388.275 434.518 C 379.351 431.604, 370.046 428.045, 367.599 426.611 L 363.148 424.003 360.444 418.476 L 357.740 412.949 358.212 405.724 C 358.917 394.935, 363.157 388.061, 372 383.373 L 375.500 381.517 384 381.521 L 392.500 381.524 396.500 383.670 C 404.327 387.870, 409.758 396.253, 410.725 405.628 L 411.280 411 422.017 411 L 432.755 411 434.018 409.479 L 435.280 407.957 434.658 402.005 C 431.493 371.722, 401.133 352.238, 370.112 360.581 M 206.200 363.200 L 205 364.400 205 450 L 205 535.600 206.200 536.800 C 206.958 537.558, 210.756 538, 216.500 538 C 222.244 538, 226.042 537.558, 226.800 536.800 L 228 535.600 228 502.300 L 228 469 251.250 468.965 L 274.500 468.930 282.464 467.511 C 304.950 463.505, 318.932 449.421, 322.718 426.965 L 324.283 417.684 323.206 409.092 C 319.840 382.237, 306.353 368.211, 279.373 363.506 L 270.738 362 239.069 362 L 207.400 362 206.200 363.200 M 457.250 363.127 L 456 364.400 456 450 L 456 535.600 457.200 536.800 C 457.958 537.558, 461.756 538, 467.500 538 C 473.244 538, 477.042 537.558, 477.800 536.800 L 479 535.600 479 502.396 L 479 469.192 505.750 468.729 L 532.500 468.267 538.500 466.547 C 588.786 452.131, 586.925 377.665, 535.947 364.390 L 529.500 362.711 494 362.282 L 458.500 361.854 457.250 363.127 M 593.250 363.133 L 592 364.400 592 450 L 592 535.600 593.200 536.800 C 593.958 537.558, 597.756 538, 603.500 538 C 609.244 538, 613.042 537.558, 613.800 536.800 L 615 535.600 615 502.300 L 615 469 638.250 468.965 C 689.703 468.888, 708.241 456.361, 710.606 420.067 L 711.165 411.500 709.589 403.500 C 705.553 383.008, 693.782 370.445, 673.325 364.796 L 665.500 362.635 630 362.250 L 594.500 361.866 593.250 363.133 M 31.194 408.250 L 31.500 453.500 34.380 459.734 C 47.822 488.837, 102.921 490.560, 118.197 462.355 C 122.524 454.366, 123 448.615, 123 404.316 L 123 363 111 363 L 99 363 98.984 406.250 L 98.967 449.500 96.703 453.497 C 95.308 455.960, 92.729 458.438, 89.982 459.953 L 85.524 462.412 77.012 462.422 L 68.500 462.432 64.334 460.238 C 54.551 455.088, 54 452.004, 54 402.364 L 54 363 42.444 363 L 30.888 363 31.194 408.250 M 228 416.051 L 228 448.311 249.750 447.714 C 285.192 446.743, 293.916 443.053, 298.379 427.146 C 303.665 408.307, 296.418 391.338, 281 386.449 L 275.500 384.705 251.750 384.248 L 228 383.792 228 416.051 M 479 415.896 L 479 448 492.750 447.984 C 530.816 447.939, 541.825 444.466, 548.169 430.500 L 550.440 425.500 550.441 416.500 L 550.442 407.500 548.587 402.090 C 547.421 398.688, 545.199 395.146, 542.598 392.545 L 538.463 388.410 532.482 386.569 L 526.500 384.728 502.750 384.260 L 479 383.792 479 415.896 M 615 416.051 L 615 448.311 636.750 447.714 C 670.328 446.794, 678.361 443.975, 684.382 431 L 686.470 426.500 686.460 416 L 686.449 405.500 684.083 400.206 C 681.102 393.539, 675.585 388.769, 668.224 386.496 L 662.500 384.728 638.750 384.260 L 615 383.792 615 416.051" stroke="none" fill="#ffffff" fill-rule="evenodd"/>
<path d="M 168 276 L 168 552 445 552 L 722 552 722 276 L 722 0 445 0 L 168 0 168 276 M 173 275.500 L 173 547 445 547 L 717 547 717 275.500 L 717 4 680.500 4 C 660.425 4, 644 4.241, 644 4.535 C 644 4.829, 646.421 9.667, 649.379 15.285 L 654.758 25.500 660.771 45.500 L 666.785 65.500 668.919 87 L 671.053 108.500 670.053 122.500 C 668.249 147.762, 662.002 172.921, 652.049 195 C 646.484 207.344, 634.254 229, 632.847 229 C 632.377 229, 591.494 201.999, 541.996 168.997 L 452 108.994 452 56.497 L 452 4 446.500 4 L 441 4 441 54.918 L 441 105.837 488.552 203.033 C 514.706 256.491, 535.968 300.325, 535.802 300.442 C 523.052 309.408, 477.357 321.215, 450 322.611 L 437.500 323.249 416.500 321.062 L 395.500 318.876 374.787 312.431 L 354.074 305.986 335.921 296.120 L 317.769 286.254 301.634 272.938 L 285.500 259.622 272.500 243.805 L 259.500 227.988 249.613 209.829 L 239.725 191.669 233.402 171.585 L 227.079 151.500 224.874 129.410 L 222.669 107.321 224.864 85.410 L 227.059 63.500 233.110 44 L 239.160 24.500 244.551 14.250 L 249.941 4 211.471 4 L 173 4 173 275.500 M 458.026 55.245 L 458.051 106.500 544.062 164 C 591.368 195.625, 630.405 221.616, 630.812 221.759 C 632.044 222.189, 641.612 205.209, 647.314 192.475 C 657.198 170.398, 663.267 145.463, 664.864 120.375 L 665.683 107.500 663.429 86 L 661.175 64.500 655.212 45.293 L 649.250 26.086 643.375 15.293 L 637.500 4.500 547.750 4.245 L 458 3.989 458.026 55.245 M 249.700 16.263 L 243.900 27.500 238.068 46.500 L 232.236 65.500 230.177 87 L 228.117 108.500 230.435 130 L 232.753 151.500 238.788 170.500 L 244.822 189.500 254.668 207.500 L 264.515 225.500 276.878 240.500 L 289.241 255.500 305.612 269 L 321.982 282.500 339.458 291.833 L 356.934 301.166 375.717 307.111 L 394.500 313.055 416.916 315.469 L 439.331 317.883 452.416 316.984 C 477.120 315.287, 498.362 310.327, 519.750 301.260 C 529.918 296.949, 535.464 311.504, 482 202.184 L 436 108.126 436 56.563 L 436 5 345.750 5.013 L 255.500 5.026 249.700 16.263 M 486.820 161.658 C 490.080 168.171, 512.203 213.325, 535.983 262 C 559.763 310.675, 579.578 350.886, 580.017 351.358 C 581.095 352.516, 599.174 342.352, 611.500 333.659 C 630.554 320.221, 647.113 304.142, 661.335 285.268 L 669.046 275.036 576.273 213.207 C 525.248 179.202, 482.913 151.027, 482.196 150.597 C 481.479 150.167, 483.559 155.144, 486.820 161.658 M 496 167.345 C 496 167.963, 581.961 343.294, 582.556 343.889 C 584.402 345.735, 610.984 328.270, 625.878 315.426 C 639.983 303.262, 662.234 277.729, 660.280 275.949 C 656.620 272.616, 496 166.431, 496 167.345 M 376.500 360.033 C 357.414 362.575, 342.343 375.184, 336.875 393.185 L 334.772 400.110 335.229 409.805 L 335.686 419.500 337.916 425.252 C 340.934 433.039, 346.944 440.361, 354.131 445.006 L 360.096 448.862 375.910 453.971 C 408.311 464.439, 416.011 471.094, 415.994 488.616 C 415.980 503.927, 407.593 514.840, 392.959 518.589 L 386.699 520.193 381.370 519.527 C 378.440 519.161, 373.304 517.493, 369.957 515.821 L 363.873 512.780 359.956 507.825 C 356.186 503.056, 353 495.074, 353 490.400 C 353 489.170, 352.727 487.452, 352.393 486.582 L 351.786 485 341.515 485 L 331.245 485 329.971 486.534 L 328.698 488.069 330.288 496.140 C 331.163 500.579, 333.471 507.565, 335.418 511.664 L 338.957 519.117 344.728 524.826 C 382.891 562.576, 448.531 528.632, 437.551 476.826 C 432.958 455.158, 421.979 446.012, 386.916 434.649 L 369.436 428.984 365.689 425.895 C 352.326 414.880, 355.141 392.454, 370.998 383.597 L 376.497 380.526 383.998 380.578 L 391.500 380.629 396.277 382.938 C 404.676 386.996, 409.773 394.917, 411.600 406.750 L 412.256 411 421.799 411 L 431.343 411 433.095 409.414 L 434.846 407.829 434.356 404.164 C 430.237 373.401, 407.329 355.927, 376.500 360.033 M 206.655 363.829 L 205 365.657 205 450.174 L 205 534.690 206.829 536.345 L 208.657 538 216.674 538 L 224.690 538 226.345 536.171 L 228 534.343 228 501.809 L 228 469.275 252.750 468.703 L 277.500 468.130 284.500 466.571 C 313.561 460.101, 328.106 434.741, 321.415 402.208 C 314.869 370.383, 296.863 362.117, 233.905 362.034 L 208.310 362 206.655 363.829 M 457.750 363.709 L 456 365.657 456 450.174 L 456 534.690 457.829 536.345 L 459.657 538 467.629 538 C 472.495 538, 476.067 537.533, 476.800 536.800 L 478 535.600 478 502.436 L 478 469.272 503.250 468.704 L 528.500 468.135 535.500 466.574 C 559.201 461.288, 572.051 445.588, 573.620 420 L 574.203 410.500 572.623 403.094 C 570.597 393.602, 566.395 384.754, 561.065 378.761 L 556.850 374.022 548.675 370.044 C 544.179 367.856, 537.125 365.341, 533 364.456 L 525.500 362.847 492.500 362.304 L 459.500 361.760 457.750 363.709 M 593.655 363.829 L 592 365.657 592 450.174 L 592 534.690 593.829 536.345 L 595.657 538 603.674 538 L 611.690 538 613.345 536.171 L 615 534.343 615 501.801 L 615 469.260 639.750 468.708 L 664.500 468.157 671.500 466.585 C 689.567 462.528, 701.394 452.502, 707.086 436.419 L 709.181 430.500 709.695 419.500 L 710.209 408.500 708.605 401.688 C 701.131 369.964, 683.496 362.030, 620.405 362.009 L 595.310 362 593.655 363.829 M 369.798 366.931 C 346.031 374.530, 333.999 399.735, 342.936 423.202 C 347.876 436.173, 355.218 441.422, 380.290 449.906 C 407.389 459.075, 413.331 462.928, 418.799 474.872 L 421.300 480.335 421.267 488.418 L 421.234 496.500 418.995 502.500 L 416.756 508.500 410.512 514.668 L 404.268 520.837 397.529 522.918 C 375.100 529.846, 353.714 517.882, 348.517 495.500 L 347.356 490.500 341.178 490.202 L 335 489.905 335.012 492.202 C 335.244 537.114, 407.196 551.213, 427.805 510.386 C 444.256 477.798, 430.357 454.431, 385.916 439.960 C 357.547 430.723, 350.979 423.808, 352.233 404.500 L 352.688 397.500 355.257 392.500 C 358.534 386.125, 364.140 380.721, 370.500 377.809 L 375.500 375.520 384 375.510 C 400.284 375.491, 410.980 383.555, 415.490 399.250 L 417.142 405 423.185 405 L 429.227 405 428.543 400.250 C 428.167 397.637, 426.476 392.467, 424.786 388.759 L 421.712 382.018 416.533 377.119 C 404.717 365.945, 385.788 361.818, 369.798 366.931 M 211 449.919 L 211 532 216.500 532 L 222 532 222 499.200 L 222 466.400 223.200 465.200 L 224.400 464 238.950 463.985 C 296.118 463.927, 312.498 455.628, 317.147 424.369 L 318.256 416.915 317.147 408.330 C 314.548 388.197, 304.041 376.007, 284.415 370.358 L 278.500 368.655 244.750 368.247 L 211 367.838 211 449.919 M 461 450 L 461 532 467 532 L 473 532 473 499.200 L 473 466.400 474.200 465.200 L 475.400 464 489.450 463.979 C 546.523 463.896, 563.653 455.398, 568.023 425 C 572.242 395.653, 557.754 374.356, 530.233 369.449 L 522.500 368.070 491.750 368.035 L 461 368 461 450 M 598 450 L 598 532 603.500 532 L 609 532 609 499.122 L 609 466.245 610.250 465.259 C 610.945 464.711, 622.829 463.985, 637 463.624 C 689.876 462.280, 707.521 448.839, 704.685 412.069 C 701.981 377.019, 686.197 368, 627.558 368 L 598 368 598 450 M 223.200 379.200 L 222 380.400 222 415.500 L 222 450.600 223.200 451.800 L 224.400 453 248.064 453 C 274.480 453, 279.726 452.346, 288.753 447.930 L 295.007 444.871 298.446 440.368 C 300.337 437.890, 302.698 433.532, 303.692 430.682 L 305.500 425.500 305.407 415.500 L 305.314 405.500 303.010 399.551 C 296.293 382.199, 285.016 378, 245.128 378 L 224.400 378 223.200 379.200 M 474.250 379.113 L 473 380.400 473 415.500 L 473 450.600 474.200 451.800 L 475.400 453 499.253 453 L 523.105 453 529.807 451.476 C 542.822 448.515, 550.364 442.123, 554.554 430.500 L 556.357 425.500 556.389 416.500 C 556.460 396.990, 548.384 384.783, 532.500 380.390 L 526.500 378.731 501 378.278 L 475.500 377.826 474.250 379.113 M 610.200 379.200 L 609 380.400 609 415.578 L 609 450.755 610.455 451.963 L 611.910 453.170 638.705 452.790 L 665.500 452.410 671.157 450.168 C 688.333 443.361, 696.075 427.309, 692.050 406.850 C 687.469 383.563, 675.915 378, 632.128 378 L 611.400 378 610.200 379.200 M 228 415.467 L 228 448.205 252.250 447.783 L 276.500 447.360 282.332 445.078 C 292.934 440.928, 298.109 434.225, 300.059 422.112 L 301.041 416.017 299.968 409.258 C 297.902 396.255, 291.348 388.625, 279.500 385.434 L 273.500 383.817 250.750 383.273 L 228 382.728 228 415.467 M 478 415.366 L 478 448 499.250 447.983 L 520.500 447.965 527.144 446.557 C 539.548 443.928, 546.330 438.545, 549.585 428.745 L 551.185 423.927 550.843 414.137 L 550.500 404.348 547.487 398.463 C 543.898 391.450, 539.063 387.741, 530.500 385.431 L 524.500 383.812 501.250 383.272 L 478 382.731 478 415.366 M 615 415.475 L 615 448.205 639.250 447.764 L 663.500 447.323 668.800 445.494 C 675.861 443.056, 682.159 437.355, 685.046 430.788 L 687.370 425.500 687.395 416.500 L 687.420 407.500 685.505 402.229 C 679.988 387.045, 672.612 384.119, 637.750 383.288 L 615 382.745 615 415.475" stroke="none" fill="#000000" fill-rule="evenodd"/>
<path d="M 0 360 L 0 718 359.500 718 L 719 718 719 643 L 719 568 435.500 568 L 152 568 152 285 L 152 2 76 2 L 0 2 0 360 M 173.493 275.500 C 173.493 425.100, 173.609 486.151, 173.750 411.169 C 173.891 336.188, 173.891 213.788, 173.750 139.169 C 173.609 64.551, 173.493 125.900, 173.493 275.500 M 249.700 16.263 L 243.900 27.500 238.068 46.500 L 232.236 65.500 230.177 87 L 228.117 108.500 230.435 130 L 232.753 151.500 238.788 170.500 L 244.822 189.500 254.668 207.500 L 264.515 225.500 276.878 240.500 L 289.241 255.500 305.612 269 L 321.982 282.500 339.458 291.833 L 356.934 301.166 375.717 307.111 L 394.500 313.055 416.916 315.469 L 439.331 317.883 452.416 316.984 C 477.120 315.287, 498.362 310.327, 519.750 301.260 C 529.918 296.949, 535.464 311.504, 482 202.184 L 436 108.126 436 56.563 L 436 5 345.750 5.013 L 255.500 5.026 249.700 16.263 M 60.275 39.539 C 4.693 54.509, 5.804 145.453, 61.729 158.612 L 68.500 160.205 77.073 159.738 L 85.645 159.271 91.784 156.516 L 97.923 153.761 103.429 147.989 L 108.934 142.217 109.410 143.859 C 109.672 144.761, 110.177 147.563, 110.532 150.085 C 110.887 152.606, 111.515 155.216, 111.928 155.884 L 112.679 157.099 119.590 156.799 L 126.500 156.500 126.500 125 L 126.500 93.500 103 93.500 L 79.500 93.500 79.500 103.500 L 79.500 113.500 92.823 113.780 L 106.146 114.059 105.451 117.280 C 103.759 125.118, 98.272 131.814, 90 136.135 L 85.500 138.486 76.500 138.493 L 67.500 138.500 62.078 135.500 C 55.606 131.920, 49.978 125.148, 46.911 117.252 L 44.677 111.500 44.218 101.075 C 43.305 80.299, 49.319 67.452, 62.880 61.211 L 68.260 58.734 75.880 58.750 C 88.461 58.777, 97.079 63.276, 101.587 72.173 L 104.034 77 115.149 77 L 126.263 77 125.736 73.068 C 122.436 48.464, 89.594 31.642, 60.275 39.539 M 496 167.345 C 496 167.963, 581.961 343.294, 582.556 343.889 C 584.402 345.735, 610.984 328.270, 625.878 315.426 C 639.983 303.262, 662.234 277.729, 660.280 275.949 C 656.620 272.616, 496 166.431, 496 167.345 M 28.667 204.667 C 28.300 205.033, 28 231.358, 28 263.167 L 28 321 39.989 321 L 51.977 321 52.239 281.250 L 52.500 241.500 75.500 281.213 L 98.500 320.926 110.750 320.963 L 123 321 123 262.500 L 123 204 111.011 204 L 99.023 204 98.761 243.384 L 98.500 282.767 76.264 244.597 C 64.034 223.604, 53.481 205.881, 52.814 205.214 L 51.600 204 40.467 204 C 34.343 204, 29.033 204.300, 28.667 204.667 M 31.212 408.321 L 31.500 454.706 35.009 461.596 L 38.518 468.486 44.669 473.132 C 48.137 475.751, 53.804 478.803, 57.660 480.128 L 64.500 482.479 76.500 482.489 L 88.500 482.500 95.537 480.286 C 108.513 476.203, 118.115 467.086, 121.522 455.614 L 123 450.637 123 406.287 L 123 361.937 111.250 362.218 L 99.500 362.500 99 406 L 98.500 449.500 96.852 452.502 C 89.541 465.826, 62.852 465.493, 56.649 452 L 55.500 449.500 55 406 L 54.500 362.500 42.712 362.218 L 30.924 361.936 31.212 408.321 M 306.250 552.750 C 382.562 552.891, 507.437 552.891, 583.750 552.750 C 660.062 552.609, 597.625 552.493, 445 552.493 C 292.375 552.493, 229.937 552.609, 306.250 552.750" stroke="none" fill="#04046b" fill-rule="evenodd"/>
</svg>
