<svg width="100" height="100" viewBox="0 0 553.000000 412.000000" preserveAspectRatio="xMidYMid meet">
<g  transform="translate(0.000000,412.000000) scale(0.100000,-0.100000)" fill="#066da5" stroke="none">
    <path d="M2660 3560 l0 -230 250 0 250 0 0 230 0 230 -250 0 -250 0 0 -230z"/>
    <path d="M1470 3015 l0 -225 250 0 250 0 0 225 0 225 -250 0 -250 0 0 -225z"/>
    <path d="M2070 3015 l0 -225 245 0 245 0 0 225 0 225 -245 0 -245 0 0 -225z"/>
    <path d="M2660 3015 l0 -225 250 0 250 0 0 225 0 225 -250 0 -250 0 0 -225z"/>
    <path d="M4232 3037 c-96 -153 -133 -281 -134 -457 -1 -118 16 -199 61 -297 l29 -61 -51 -21 c-151 -60 -8 -56 -1894 -59 l-1722 -2 -8 -38 c-4 -20 -7 -107 -7 -192 6 -587 293 -1084 764 -1320 322 -161 722 -211 1240 -154 415 46 791 167 1100 354 403 243 704 575 918 1011 l77 156 125 11 c304 27 464 131 592 386 22 43 35 82 30 85 -5 3 -38 25 -74 48 -103 68 -187 87 -400 87 l-176 1 -11 52 c-34 173 -194 368 -397 486 -5 3 -33 -31 -62 -76z"/>
    <path d="M880 2465 l0 -225 250 0 250 0 0 225 0 225 -250 0 -250 0 0 -225z"/>
    <path d="M1470 2465 l0 -225 250 0 250 0 0 225 0 225 -250 0 -250 0 0 -225z"/>
    <path d="M2070 2465 l0 -225 245 0 245 0 0 225 0 225 -245 0 -245 0 0 -225z"/>
    <path d="M2660 2465 l0 -225 250 0 250 0 0 225 0 225 -250 0 -250 0 0 -225z"/>
    <path d="M3250 2465 l0 -225 250 0 250 0 0 225 0 225 -250 0 -250 0 0 -225z"/>
</g>
</svg>
