<svg xmlns="http://www.w3.org/2000/svg" viewBox="0 0 256 206" height="100px" width="100px">
<path fill="#4285f4" d="M161.9 56.7h7.4l21.1-21.1 1-9C175.2 12.3 154 4 130.8 4 88.8 4 53.3 31.9 41.9 70.2c2.3-.9 4.8-1.4 7.4-1.4h42.2c7.7-7.6 18.2-12.2 29.8-12.2 13.8 0 26.1 6.5 33.9 16.7l6.7-16.6z"/>
<path fill="#34a853" d="M214.8 70.3c-5.1-18.8-16-34.9-31-46.5l-30.5 30.5c10.1 7.7 16.7 19.9 16.7 33.7v5.3c14.6 0 26.5 11.9 26.5 26.5s-11.9 26.5-26.5 26.5h-47.8l-5.3 5.4v31.8l5.3 5.3H170c38.1 0 69-30.9 69-69 0-23.1-9.5-39.9-24.2-49.5z"/>
<path fill="#fbbc05" d="M74.5 188.8h47.7v-42.4H74.5c-3.4 0-6.7-.7-9.7-1.9l-7.4 2.3-21.2 21.1-1.9 7.2c11.5 8.6 25.4 13.7 40.2 13.7z"/>
<path fill="#ea4335" d="M74.5 54.8c-38.1 0-69 30.9-69 69 0 20.9 9.4 39.7 24.2 52.3l30.6-30.6c-8.6-4.1-14.6-12.9-14.6-23.1 0-14.1 11.4-25.5 25.5-25.5 10.4 0 19.4 6.2 23.4 15.2l30.6-30.6C112.4 65.3 94.6 54.8 74.5 54.8z"/>
</svg>
