<svg width="100" height="100" xmlns="http://www.w3.org/2000/svg" xmlns:xlink="http://www.w3.org/1999/xlink" x="0px" y="0px" viewBox="0 0 512 512" xml:space="preserve">
<g >
    <path fill="#cc0000" d="M335.8,228.3c-11.2-32.6,3-85.3,3-85.3s-48.6,28-84.3,27.7c-35.6-0.3-81.1-27.7-81.1-27.7s12,52.5,1.5,86.2   c-10.3,33.7-52.7,71.3-52.7,71.3s55,4.9,82.1,23.5c27.2,18.6,51.7,73.8,51.7,73.8s16.7-50.2,49.5-72.8   c32.8-22.8,84.5-24.6,84.5-24.6s-42.7-39.3-54.3-71.8L335.8,228.3z M293.1,307c-23.2,17.3-37.3,46.7-37.3,46.7   s-16.2-30.5-38.3-47.3c-22.4-16.8-54.8-20.7-54.8-20.7c15.4-13.4,26.8-31,32.6-50.6c9.8-32.8,3.8-58.3,3.8-58.3   s19.7,14.9,55.9,14.9s59.5-14.9,59.5-14.9s-8.1,33.7,1.5,57.6c9.4,24.3,33.5,51.4,33.5,51.4S316.2,289.5,293.1,307L293.1,307z    M292.9,204.8c0,0-20.3,8.1-37.7,7.8c-17.5,0-36.3-7.8-36.3-7.8c1,12.3,0,24.5-3.7,36.3c-5.7,18.3-19.4,35-19.4,35   c25.3,5,47.2,20.7,60.2,42.8c0,0,9.6-18.1,25.2-28.3c10.7-6.7,22.4-11.8,34.8-14.9c0,0-15.7-16.7-21.7-33.5   C288.3,225.5,292.9,204.8,292.9,204.8z M428.8,256l70.6-78.9l-103.5-22.8l10.7-105.4l-97.3,42.7L256,0l-53.3,91.5l-97.1-42.7   l10.5,105.6L12.6,176.8L83,256l-70.2,78.9l103.4,22.8l-10.7,105.4l97.1-42.7L256,512l53.3-91.5l97.3,42.7l-10.7-105.4l103.5-22.6   L429,256H428.8z M316.3,340.3c-17.7,13-60.3,103.7-60.3,103.7s-32-82.3-64-103.7c-31.6-21.3-114.8-26-114.8-26s63.7-50.6,76.2-95.3   c12.6-44.8-7.9-114.6-7.9-114.6s61.8,44.8,108.3,44.8c46.3,0,112.3-44.8,112.3-44.8s-17.5,96-11.3,116.5   c6.4,20.4,79.6,93.4,79.6,93.4s-100.3,13.3-118.2,26L316.3,340.3z"/>
</g>
</svg>
