<svg xmlns="http://www.w3.org/2000/svg" viewBox="0 0 256 292" height="100px" width="100px">
<path fill="#539e43" d="M128 0 7.2 69.6v152.8L128 292l120.8-69.6V69.6L128 0z"/>
<path fill="#fff" d="M173.1 202.7c-31.9 0-38.6-14.6-38.6-26.9 0-1.2 1-2.1 2.1-2.1h9.4c1 0 1.9.7 2.1 1.8 1.4 9.6 5.7 14.4 24.9 14.4 15.3 0 21.9-3.5 21.9-11.6 0-4.7-1.9-8.2-25.7-10.5-19.9-2-32.2-6.4-32.2-22.3 0-14.7 12.4-23.4 33.2-23.4 23.3 0 34.9 8.1 36.3 25.5.1.6-.1 1.2-.6 1.6-.4.5-1 .7-1.6.7h-9.5c-1 0-1.9-.7-2.1-1.7-2.3-10.1-7.8-13.3-22.6-13.3-16.7 0-18.7 5.9-18.7 10.2 0 5.3 2.3 6.9 24.9 9.8 22.4 3 33.1 7.2 33.1 22.8 0 15.9-13.2 25-36.3 25zM117.8 122.5h-9.5c-1.2 0-2.1 1-2.1 2.1v51c0 8.8-9.2 17.5-24 9.9l-7.4-4.3c-.8-.5-1.9-.2-2.4.6l-4.6 7.9c-.6.9-.2 2.1.7 2.7l7.4 4.3c9.1 5.3 17.7 7.9 25.4 7.9 13.7 0 18.7-8.4 18.7-28.3v-51.7c0-1.2-1-2.1-2.2-2.1z"/>
</svg>
