<svg xmlns="http://www.w3.org/2000/svg" xmlns:xlink="http://www.w3.org/1999/xlink" id="esALaonKU7E1" viewBox="0 0 400.4 400.3" shape-rendering="geometricPrecision" text-rendering="geometricPrecision" height="100px" width="100px"> 
<g  transform="matrix(7.517872 0 0 7.390641 19.019281 9.93337)">
    <path d="M11.2,14.9L0,21.3L17.4,31.4v20.1l11.2-6.4c.5-.3.9-1,.9-1.6v-19.1L13,14.9c-.5-.3-1.3-.3-1.8,0Z" fill="#5ce500"/>
    <path d="M12.1,48.4v-13.9L0,41.5ZM25,0.2c-.5-.3-1.3-.3-1.8,0L10.7,7.4L34.8,21.3v27.9L47.3,42c.5-.3.9-1,.9-1.6v-26.8L25,0.2Z" fill="#5ce500"/>
    <path d="M12.1,48.4v-13.9L0,41.5ZM25,0.2c-.5-.3-1.3-.3-1.8,0L10.7,7.4L34.8,21.3v27.9L47.3,42c.5-.3.9-1,.9-1.6v-26.8L25,0.2Z" fill="#5ce500"/>
</g>
</svg>
