<svg xmlns="http://www.w3.org/2000/svg" viewBox="0 0 200 200">
  <path fill="#388200" d="M8.1 1.8C6.2 2.7 3.7 4.8 2.6 6.3.5 9.1.5 9.9.2 98.3-.1 197.5-.3 193.8 6.4 198c3.3 2 4.5 2 93.7 2 86.7 0 90.5-.1 93.5-1.9 6.7-4.1 6.4.7 6.4-98.4V10.3l-2.3-3.4C192.8-.4 198.7 0 100 0 17.7 0 11.3.1 8.1 1.8z"/>
  <path fill="#ffffff" d="M160.9 48.2c-21.5 46.4-34.7 70-48.1 85.5-12.6 14.8-29 22.7-41.7 20.3-14.5-2.7-22-10.7-19.1-20.4 1.8-6.3 8.4-12.3 32-29.1 35.5-25.4 55.4-42.3 74.6-63.6 5.9-6.5 10.8-11.9 11-11.9.1 0-3.8 8.7-8.7 19.2zM140.3 53.9c-16.8 16.5-30.8 27.8-58.3 47.3-24.1 17.1-31.3 23.7-33.3 30.5l-1.4 4.7-1.9-5.4c-2.6-7.7-2.4-18 .5-24.7 4.3-9.8 10.9-14.3 35-23.9 23.6-9.5 50.1-24.5 67.6-38.3 2.8-2.2 5.2-4 5.5-4 .3 0-5.9 6.2-13.7 13.8z"/>
</svg>