<svg width="100" height="100" viewBox="0 0 200.000000 200.000000" preserveAspectRatio="xMidYMid meet">
<g  transform="translate(0.000000,200.000000) scale(0.100000,-0.100000)" fill="#388200" stroke="none">
<path d="M81 1982 c-19 -9 -44 -30 -55 -45 -21 -28 -21 -36 -24 -920 -3 -992 -5 -955 62 -997 33 -20 45 -20 937 -20 867 0 905 1 935 19 67 41 64 -7 64 984 l0 894 -23 34 c-49 73 10 69 -977 69 -823 0 -887 -1 -919 -18z m1528 -464 c-215 -464 -347 -700 -481 -855 -126 -148 -290 -227 -417 -203 -145 27 -220 107 -191 204 18 63 84 123 320 291 355 254 554 423 746 636 59 65 108 119 110 119 1 0 -38 -87 -87 -192z m-206 -57 c-168 -165 -308 -278 -583 -473 -241 -171 -313 -237 -333 -305 l-14 -47 -19 54 c-26 77 -24 180 5 247 43 98 109 143 350 239 236 95 501 245 676 383 28 22 52 40 55 40 3 0 -59 -62 -137 -138z"/>
</g>
</svg>
